# xmcd CD database file generated by Grip 2.94
# 
# Track frame offsets:
#       150
#       11122
#       24137
#       37567
#       50137
#       63152
#       73382
#       84095
#       94765
#       108462
#       118372
#       130877
#       141592
#       155732
#       169640
#       181917
#       193657
# 
# Disc length: 2737 seconds
# 
# Revision: 3
# Processed by: cddbd v1.4b41PL1 Copyright (c) Steve Scherf et al.
# Submitted via: Grip 2.94
# 
DISCID=ea0aaf11
DTITLE=la vern - La Vern Baker
DYEAR=1900
DGENRE=
TTITLE0=Lots And Lots Of Love
TTITLE1=Of Course I Do
TTITLE2=You'll Be Crying
TTITLE3=Miracles
TTITLE4=I'm In A Crying Mood
TTITLE5=Mine All Mine
TTITLE6=Harbour Lights
TTITLE7=I'll Never Be Free
TTITLE8=Romance In The Dark
TTITLE9=Everybody's Somebody's Fool
TTITLE10=How Long Will It Be
TTITLE11=Fool That I Am
TTITLE12=Living My Life For You
TTITLE13=I Can't Hold Out Any Longer
TTITLE14=Fee-Fi-Fo-Fum
TTITLE15=I'll Still Do The Same For You
TTITLE16=The Game Of Love
EXTD=
EXTT0=
EXTT1=
EXTT2=
EXTT3=
EXTT4=
EXTT5=
EXTT6=
EXTT7=
EXTT8=
EXTT9=
EXTT10=
EXTT11=
EXTT12=
EXTT13=
EXTT14=
EXTT15=
EXTT16=
PLAYORDER=
